<?xml version="1.0" encoding="UTF-8" standalone="no"?>
<svg
   xmlns:dc="http://purl.org/dc/elements/1.1/"
   xmlns:cc="http://creativecommons.org/ns#"
   xmlns:rdf="http://www.w3.org/1999/02/22-rdf-syntax-ns#"
   xmlns:svg="http://www.w3.org/2000/svg"
   xmlns="http://www.w3.org/2000/svg"
   xmlns:sodipodi="http://sodipodi.sourceforge.net/DTD/sodipodi-0.dtd"
   xmlns:inkscape="http://www.inkscape.org/namespaces/inkscape"
   width="4096"
   height="4096"
   version="1.1"
   id="svg22"
   sodipodi:docname="windows-10-logo.svg"
   style="fill:#0078d6"
   inkscape:version="0.92.4 (5da689c313, 2019-01-14)"
   inkscape:export-filename="G:\Users\suitedoalex\sites\windows-10-logo.png"
   inkscape:export-xdpi="96"
   inkscape:export-ydpi="96">
  <metadata
     id="metadata28">
    <rdf:RDF>
      <cc:Work
         rdf:about="">
        <dc:format>image/svg+xml</dc:format>
        <dc:type
           rdf:resource="http://purl.org/dc/dcmitype/StillImage" />
        <dc:title></dc:title>
      </cc:Work>
    </rdf:RDF>
  </metadata>
  <defs
     id="defs26" />
  <sodipodi:namedview
     pagecolor="#ffffff"
     bordercolor="#666666"
     borderopacity="1"
     objecttolerance="10"
     gridtolerance="10"
     guidetolerance="10"
     inkscape:pageopacity="0"
     inkscape:pageshadow="2"
     inkscape:window-width="1600"
     inkscape:window-height="837"
     id="namedview24"
     showgrid="false"
     inkscape:zoom="0.062020395"
     inkscape:cx="1420.6387"
     inkscape:cy="1596.4345"
     inkscape:window-x="-8"
     inkscape:window-y="-8"
     inkscape:window-maximized="1"
     inkscape:current-layer="svg22" />
  <path
     inkscape:connector-curvature="0"
     d="m 498.82928,1843.9165 232.69828,-31.939 V 2036.854 H 498.82928 m 260.7264,-229.3088 308.30892,-45.0406 v 272.4591 H 759.55568 m -260.7264,25.6815 h 232.69828 v 225.5284 l -232.69828,-32.5908 m 260.7264,-189.9392 h 308.30892 v 269.8518 l -308.30892,-43.6717"
     id="path2"
     style="stroke-width:6.51815939"
     inkscape:export-filename="G:\Users\suitedoalex\sites\windows-10-logo-5.png"
     inkscape:export-xdpi="12.393728"
     inkscape:export-ydpi="12.393728" />
  <path
     inkscape:connector-curvature="0"
     d="m 1241.5735,1873.2482 c 14.6658,0.065 29.3316,0.065 44.0627,0.2607 22.8788,82.6502 45.4316,165.4309 68.3755,248.1463 4.8886,17.3383 8.5387,35.0677 10.6898,53.0579 23.8565,-101.4878 56.4473,-200.8245 83.8235,-301.4649 12.7105,0.065 25.4208,0.065 38.1313,0.1303 20.1411,71.6346 38.9785,143.5951 58.924,215.2949 7.3652,28.5494 16.8816,56.708 19.8805,86.2351 21.5747,-101.3573 52.3409,-200.694 76.7833,-301.3996 14.471,-0.1955 28.9409,-0.1955 43.4118,-0.1955 -31.5483,115.3062 -64.4002,230.2866 -96.3389,345.4624 h -46.9959 c -23.1392,-82.7154 -46.0833,-165.4961 -69.4834,-248.0811 -3.9109,-13.3623 -5.5404,-27.1807 -6.7789,-40.9993 -1.8251,11.9283 -3.5198,23.9869 -6.5833,35.6544 -23.6609,84.2145 -47.6478,168.2988 -70.6568,252.6439 -15.6436,0.8472 -31.2872,0.9124 -46.9308,0.7821 -33.5685,-115.1106 -66.8762,-230.3518 -100.3144,-345.5276"
     id="path4"
     style="stroke-width:6.51815939"
     inkscape:export-filename="G:\Users\suitedoalex\sites\windows-10-logo-5.png"
     inkscape:export-xdpi="12.393728"
     inkscape:export-ydpi="12.393728" />
  <path
     inkscape:connector-curvature="0"
     d="m 1712.5099,1876.051 a 26.072636,26.072636 0 1 1 0,6.5181 m 5.8667,88.5167 h 39.1092 v 247.69 h -39.1092"
     id="path6"
     style="stroke-width:6.51815939"
     inkscape:export-filename="G:\Users\suitedoalex\sites\windows-10-logo-5.png"
     inkscape:export-xdpi="12.393728"
     inkscape:export-ydpi="12.393728" />
  <path
     inkscape:connector-curvature="0"
     d="m 1861.5157,2010.9769 c 22.3567,-39.8259 74.5018,-58.142 116.5443,-39.6956 33.4382,13.0363 45.8879,51.7541 46.9303,84.7361 1.8254,54.2311 0.3259,108.5273 0.7831,162.7584 -13.0371,0 -26.0732,0 -39.1092,-0.065 -0.5873,-52.08 1.3683,-104.2905 -0.9132,-156.3706 -1.0423,-25.8119 -11.9927,-56.8384 -40.0859,-63.4217 -41,-12.3845 -81.9335,24.5735 -83.2372,65.1163 -1.1736,51.5587 -0.061,103.1826 -0.4561,154.7412 h -39.1091 c 0.061,-82.585 0.061,-165.1049 0,-247.69 h 39.1736 c -0.061,13.297 -0.1301,26.594 -0.5206,39.8911"
     id="path8"
     style="stroke-width:6.51815939"
     inkscape:export-filename="G:\Users\suitedoalex\sites\windows-10-logo-5.png"
     inkscape:export-xdpi="12.393728"
     inkscape:export-ydpi="12.393728" />
  <path
     inkscape:connector-curvature="0"
     d="m 2259.5794,1853.8241 c 13.036,-0.065 26.073,-0.065 39.1091,-0.065 v 365.0169 h -38.9789 c 0.061,-13.2318 -0.1958,-26.4637 -1.108,-39.6956 -28.2234,50.7113 -103.7041,61.9225 -146.8545,24.3128 -30.8307,-26.529 -40.217,-69.6792 -38.5874,-108.7229 0.326,-39.6305 13.362,-81.7377 44.9102,-107.6148 40.9991,-33.7641 113.6766,-31.8087 141.7698,17.7945 -0.5207,-50.3853 -0.061,-100.7056 -0.2603,-151.0257 m -84.2151,144.312 c -31.2868,4.9539 -52.471,33.5034 -58.3367,63.0306 -7.6921,35.5891 -6.3228,76.7839 16.0995,107.0282 24.2477,32.1996 77.7611,32.9167 103.704,2.4769 17.6636,-18.3812 22.6827,-44.7146 22.8138,-69.3532 0.1948,-26.0075 2.4117,-55.3392 -14.8614,-77.0447 -15.253,-21.7054 -43.7376,-31.4826 -69.4192,-26.1378"
     id="path10"
     style="stroke-width:6.51815939"
     inkscape:export-filename="G:\Users\suitedoalex\sites\windows-10-logo-5.png"
     inkscape:export-xdpi="12.393728"
     inkscape:export-ydpi="12.393728" />
  <path
     inkscape:connector-curvature="0"
     d="m 2450.8223,1964.9587 c 34.872,-3.0635 73.5251,2.4118 99.7273,27.637 29.5926,27.3111 38.3926,69.7442 36.763,108.5273 -0.4561,34.8721 -13.3629,70.2657 -38.9133,94.5785 -53.3187,48.4951 -152.3296,37.8705 -186.1593,-28.8102 -26.5938,-55.8606 -21.2487,-133.166 27.3111,-175.5993 17.4034,-14.7309 39.4352,-21.4448 61.2712,-26.3333 m -7.0403,35.4587 c -57.4245,17.6643 -67.1367,92.6882 -49.2118,142.0307 14.2752,43.8021 69.9399,63.2262 109.8967,42.7592 27.0498,-12.4497 39.3694,-42.9547 41.9768,-70.9176 2.9333,-32.6559 0.326,-69.6791 -22.7482,-95.1652 -19.5546,-22.0314 -52.6668,-26.7896 -79.9135,-18.7071"
     id="path12"
     style="stroke-width:6.51815939"
     inkscape:export-filename="G:\Users\suitedoalex\sites\windows-10-logo-5.png"
     inkscape:export-xdpi="12.393728"
     inkscape:export-ydpi="12.393728" />
  <path
     inkscape:connector-curvature="0"
     d="m 2603.6079,1971.0858 h 40.8033 c 16.1651,58.9893 31.8086,118.109 48.2997,177.0331 3.3248,11.0809 4.5629,22.5529 5.7365,34.0249 18.4455,-71.048 41.781,-140.7923 62.7039,-211.1232 l 35.6551,0.1956 c 17.9249,70.396 40.217,139.7493 55.0784,210.8624 15.3175,-70.7221 37.0881,-139.8798 54.1008,-210.2107 13.1006,-0.6517 26.2022,-0.8473 39.3694,-0.9777 -24.834,82.585 -48.6255,165.4309 -73.5907,247.8856 h -40.5419 c -17.6001,-67.1371 -40.4128,-132.9705 -54.688,-200.8244 -17.0127,67.7888 -40.6075,133.7525 -60.032,200.8244 h -39.1747 c -24.508,-82.585 -49.5377,-164.9746 -73.7198,-247.69"
     id="path14"
     style="stroke-width:6.51815939"
     inkscape:export-filename="G:\Users\suitedoalex\sites\windows-10-logo-5.png"
     inkscape:export-xdpi="12.393728"
     inkscape:export-ydpi="12.393728" />
  <path
     inkscape:connector-curvature="0"
     d="m 3043.9098,1964.8283 c 24.4424,-1.6947 49.342,0.6519 72.3515,9.6469 6.3874,12.1237 1.4339,28.0281 2.9324,41.6511 -27.4414,-17.1429 -65.2468,-28.0934 -95.0342,-10.6247 -20.4022,11.081 -21.38,43.8673 -1.4995,56.0562 28.4848,18.4464 64.6605,23.2699 89.9505,46.9959 27.8985,26.8548 21.1186,78.4787 -11.5365,98.6198 -39.6964,25.2904 -91.9717,22.8135 -133.5571,3.5198 0,-14.6007 -0.061,-29.2013 -0.3258,-43.802 29.5916,22.5528 71.178,35.0677 106.5717,19.0329 20.6625,-10.3638 21.7048,-42.1072 3.5195,-55.4694 -28.4846,-20.9886 -67.5282,-24.3129 -92.8182,-50.5158 -24.9652,-25.1601 -20.4678,-71.439 7.3652,-92.7534 14.4052,-13.2318 33.8942,-17.2079 52.0805,-22.3573"
     id="path16"
     style="stroke-width:6.51815939"
     inkscape:export-filename="G:\Users\suitedoalex\sites\windows-10-logo-5.png"
     inkscape:export-xdpi="12.393728"
     inkscape:export-ydpi="12.393728" />
  <path
     inkscape:connector-curvature="0"
     d="m 3316.4334,1867.7729 c 3.455,-0.4562 10.3641,-1.434 13.7535,-1.8903 0.1958,117.5877 0.061,235.2404 0.061,352.8932 h -38.5875 c 0.2604,-97.9028 -0.6519,-195.8707 0.4561,-293.7735 -24.5736,17.0125 -51.1028,31.548 -79.978,39.6304 0.1958,-13.0363 0.326,-26.0726 0.4561,-39.1089 37.8054,-12.8407 72.2214,-33.5686 103.8342,-57.7509"
     id="path18"
     style="stroke-width:6.51815939"
     inkscape:export-filename="G:\Users\suitedoalex\sites\windows-10-logo-5.png"
     inkscape:export-xdpi="12.393728"
     inkscape:export-ydpi="12.393728" />
  <path
     inkscape:connector-curvature="0"
     d="m 3472.8043,1867.6425 c 33.8943,-5.6707 71.5039,6.7138 91.6457,35.5241 28.6139,40.4125 31.2868,92.2319 32.7207,140.01 -0.9777,50.4505 -6.5185,105.1379 -38.7176,146.2675 -29.6582,38.9134 -90.4065,48.0388 -130.1675,19.4241 -32.2657,-23.2698 -44.9102,-63.878 -50.6468,-101.4877 -6.5174,-55.8607 -5.9312,-114.4589 13.4932,-167.7774 12.254,-36.1758 42.4985,-67.3327 81.6723,-71.9606 m -5.9969,35.0026 c -34.7419,14.0792 -44.7144,55.1436 -49.5378,88.5166 -5.0846,46.5396 -6.2571,94.5133 4.8234,140.3359 5.5407,22.5529 17.2074,46.4745 39.5651,56.3821 25.3557,12.7756 59.25,1.7599 72.6119,-23.2699 21.3144,-36.8275 21.836,-81.0206 22.0974,-122.411 -0.8476,-40.3473 -2.4772,-83.7582 -24.7694,-118.826 -13.2317,-21.3795 -41.7165,-29.9835 -64.7906,-20.7277"
     id="path20"
     style="stroke-width:6.51815939"
     inkscape:export-filename="G:\Users\suitedoalex\sites\windows-10-logo-5.png"
     inkscape:export-xdpi="12.393728"
     inkscape:export-ydpi="12.393728" />
  <path
     inkscape:connector-curvature="0"
     d="M 5112.5504,708.44521 6162.8579,564.28505 V 1579.2903 H 5112.5504 M 6289.3639,544.27914 7680.9553,340.98385 V 1570.7584 H 6289.3639 M 5112.5504,1686.6749 H 6162.8579 V 2704.6222 L 5112.5504,2557.52 M 6289.3639,1700.2084 H 7680.9553 V 2918.2147 L 6289.3639,2721.0976"
     id="path2-6"
     style="fill:#0078d6;fill-opacity:1;stroke-width:29.42044449"
     inkscape:export-filename="G:\Users\suitedoalex\sites\windows-10-logo-6.png"
     inkscape:export-xdpi="14.950914"
     inkscape:export-ydpi="14.950914" />
  <path
     inkscape:connector-curvature="0"
     d="m 5185.1585,3076.2656 c 15.0278,0.067 30.0556,0.067 45.1471,0.2671 23.448,84.6879 46.5525,169.5092 70.0641,254.2638 5.0114,17.7658 8.7509,35.9323 10.9513,54.3659 24.4465,-103.9897 57.841,-205.7754 85.8933,-308.8968 13.0246,0.067 26.0428,0.067 39.0673,0.1335 20.6371,73.4006 39.9386,147.135 60.3785,220.6024 7.5489,29.2534 17.2982,58.106 20.3699,88.3612 22.1061,-103.8561 53.6309,-205.6418 78.6751,-308.83 14.8307,-0.2004 29.655,-0.2004 44.4857,-0.2004 -32.326,118.1489 -65.9876,235.9638 -98.7143,353.9791 h -48.1552 c -23.7088,-84.7546 -47.2204,-169.576 -71.1962,-254.197 -4.0066,-13.6917 -5.6792,-27.8508 -6.9448,-42.01 -1.8697,12.2223 -3.6059,24.5782 -6.7475,36.5333 -24.243,86.2908 -48.823,172.4479 -72.3982,258.8722 -16.0327,0.8683 -32.059,0.9351 -48.0853,0.8015 -34.3993,-117.9485 -68.5251,-236.0306 -102.7908,-354.0458"
     id="path4-4"
     style="fill:#0078d6;fill-opacity:1;stroke-width:6.67885017"
     inkscape:export-filename="G:\Users\suitedoalex\sites\windows-10-logo-6.png"
     inkscape:export-xdpi="14.950914"
     inkscape:export-ydpi="14.950914" />
  <path
     inkscape:connector-curvature="0"
     d="m 5667.709,3079.1375 a 26.7154,26.7154 0 1 1 0,6.6789 m 6.0098,90.6988 h 40.0721 v 253.7963 h -40.0721"
     id="path6-0"
     style="fill:#0078d6;fill-opacity:1;stroke-width:6.67885017"
     inkscape:export-filename="G:\Users\suitedoalex\sites\windows-10-logo-6.png"
     inkscape:export-xdpi="14.950914"
     inkscape:export-ydpi="14.950914" />
  <path
     inkscape:connector-curvature="0"
     d="m 5820.3849,3217.3897 c 22.9074,-40.8077 76.3411,-59.5753 119.415,-40.6742 34.2657,13.3577 47.0232,53.0301 48.0916,86.8251 1.8697,55.568 0.318,111.2028 0.8013,166.7709 -13.3616,0 -26.7168,0 -40.0721,-0.067 -0.5724,-53.364 1.3991,-106.8615 -0.9349,-160.2255 -1.0684,-26.4483 -12.2931,-58.2397 -41.0769,-64.9853 -42.0118,-12.6898 -83.9536,25.1793 -85.2891,66.7218 -1.202,52.8296 -0.064,105.7261 -0.4452,158.5559 h -40.0721 c 0.064,-84.6211 0.064,-169.1753 0,-253.7963 h 40.142 c -0.064,13.6248 -0.1272,27.2496 -0.5087,40.8745"
     id="path8-3"
     style="fill:#0078d6;fill-opacity:1;stroke-width:6.67885017"
     inkscape:export-filename="G:\Users\suitedoalex\sites\windows-10-logo-6.png"
     inkscape:export-xdpi="14.950914"
     inkscape:export-ydpi="14.950914" />
  <path
     inkscape:connector-curvature="0"
     d="m 6228.2605,3056.3627 c 13.3616,-0.067 26.7169,-0.067 40.0721,-0.067 v 374.0156 h -39.9385 c 0.064,-13.5581 -0.1908,-27.1162 -1.1321,-40.6742 -28.9236,51.9614 -106.2632,63.449 -150.4754,24.9121 -31.5947,-27.1829 -41.2105,-71.3969 -39.5379,-111.4033 0.318,-40.6073 13.6923,-83.7527 46.0183,-110.2677 42.0055,-34.5965 116.4769,-32.5928 145.2606,18.2332 -0.5088,-51.6275 -0.064,-103.1882 -0.2544,-154.7489 m -86.2876,147.8697 c -32.0589,5.0759 -53.7644,34.3293 -59.7806,64.5845 -7.8796,36.4665 -6.4741,78.6768 16.4969,109.6667 24.8471,32.9935 79.6799,33.7282 106.2632,2.5379 18.0996,-18.8343 23.2445,-45.8168 23.3781,-71.0629 0.1908,-26.6486 2.4675,-56.7035 -15.2314,-78.944 -15.6256,-22.2406 -44.8164,-32.2589 -71.1262,-26.7822"
     id="path10-5"
     style="fill:#0078d6;fill-opacity:1;stroke-width:6.67885017"
     inkscape:export-filename="G:\Users\suitedoalex\sites\windows-10-logo-6.png"
     inkscape:export-xdpi="14.950914"
     inkscape:export-ydpi="14.950914" />
  <path
     inkscape:connector-curvature="0"
     d="m 6424.2201,3170.2371 c 35.7285,-3.1391 75.3364,2.4711 102.1868,28.3183 30.3227,27.9843 39.3343,71.4637 37.6681,111.2028 -0.4452,35.7319 -13.6923,71.998 -39.8749,96.9101 -54.6294,49.6907 -156.0847,38.8041 -190.7448,-29.5205 -27.251,-57.2377 -21.7754,-136.4489 27.9825,-179.9282 17.8324,-15.0942 40.4091,-21.9734 62.7823,-26.9825 m -7.2118,36.3329 c -58.8458,18.0997 -68.7922,94.9733 -50.4256,145.5322 14.6272,44.8818 71.6604,64.7848 112.6038,43.8132 27.7153,-12.7566 40.3392,-44.0136 43.0103,-72.6659 3.0081,-33.461 0.318,-71.3969 -23.3081,-97.5112 -20.0392,-22.5745 -53.9679,-27.4501 -81.8804,-19.1683"
     id="path12-7"
     style="fill:#0078d6;fill-opacity:1;stroke-width:6.67885017"
     inkscape:export-filename="G:\Users\suitedoalex\sites\windows-10-logo-6.png"
     inkscape:export-xdpi="14.950914"
     inkscape:export-ydpi="14.950914" />
  <path
     inkscape:connector-curvature="0"
     d="m 6580.7691,3176.5152 h 41.8146 c 16.5605,60.4435 32.5932,121.0207 49.4907,181.3975 3.4025,11.3541 4.6744,23.1088 5.8764,34.8636 18.9008,-72.7994 42.8067,-144.2631 64.2514,-216.328 l 36.5298,0.2004 c 18.3666,72.1315 41.2105,143.1946 56.4355,216.0608 15.6955,-72.4655 38.0052,-143.3281 55.4369,-215.3929 13.4253,-0.6679 26.8505,-0.8683 40.3393,-1.0019 -25.445,84.621 -49.8215,169.5093 -75.4063,253.9967 h -41.5412 c -18.0296,-68.7921 -41.4076,-136.2485 -56.0348,-205.7754 -17.4318,69.4601 -41.6111,137.05 -61.5104,205.7754 h -40.1421 c -25.1142,-84.621 -50.7563,-169.0417 -75.5398,-253.7963"
     id="path14-5"
     style="fill:#0078d6;fill-opacity:1;stroke-width:6.67885017"
     inkscape:export-filename="G:\Users\suitedoalex\sites\windows-10-logo-6.png"
     inkscape:export-xdpi="14.950914"
     inkscape:export-ydpi="14.950914" />
  <path
     inkscape:connector-curvature="0"
     d="m 7031.9284,3170.1035 c 25.0443,-1.7365 50.5592,0.6678 74.1343,9.8847 6.5441,12.4227 1.4691,28.719 3.0082,42.6778 -28.1224,-17.5654 -66.859,-28.7858 -97.3789,-10.8865 -20.9041,11.354 -21.9089,44.9486 -1.539,57.4381 29.1907,18.9012 66.2547,23.8435 92.1703,48.1545 28.5866,27.5169 21.6418,80.4134 -11.8226,101.051 -40.6763,25.914 -94.2372,23.376 -136.8468,3.6066 0,-14.9607 -0.064,-29.9213 -0.3179,-44.8819 30.3227,23.1089 72.9323,35.9323 109.2014,19.5022 21.1712,-10.6193 22.2396,-43.1453 3.6059,-56.837 -29.1844,-21.5059 -69.1929,-24.9121 -95.1085,-51.761 -25.5784,-25.7804 -20.9677,-73.2003 7.5489,-95.0401 14.7608,-13.558 34.73,-17.6322 53.3638,-22.9084"
     id="path16-5"
     style="fill:#0078d6;fill-opacity:1;stroke-width:6.67885017"
     inkscape:export-filename="G:\Users\suitedoalex\sites\windows-10-logo-6.png"
     inkscape:export-xdpi="14.950914"
     inkscape:export-ydpi="14.950914" />
  <path
     inkscape:connector-curvature="0"
     d="m 7311.1675,3070.6554 c 3.5424,-0.4674 10.6206,-1.4693 14.093,-1.9369 0.1908,120.4865 0.064,241.0397 0.064,361.593 h -39.5379 c 0.2544,-100.3163 -0.6678,-200.6995 0.4452,-301.0158 -25.1778,17.4318 -52.3589,32.3257 -81.9504,40.6074 0.1908,-13.3577 0.318,-26.7154 0.4452,-40.0731 38.7366,-13.1573 74.0008,-34.396 106.3905,-59.1746"
     id="path18-4"
     style="fill:#0078d6;fill-opacity:1;stroke-width:6.67885017"
     inkscape:export-filename="G:\Users\suitedoalex\sites\windows-10-logo-6.png"
     inkscape:export-xdpi="14.950914"
     inkscape:export-ydpi="14.950914" />
  <path
     inkscape:connector-curvature="0"
     d="m 7471.3987,3070.5218 c 34.73,-5.8106 73.2631,6.8792 93.9001,36.3998 29.3243,41.4088 32.059,94.5057 33.528,143.4616 -0.9984,51.6943 -6.6776,107.7299 -39.6714,149.8735 -30.3864,39.8727 -92.6345,49.2231 -133.3744,19.9029 -33.0638,-23.8435 -46.0184,-65.4527 -51.8947,-103.9897 -6.6776,-57.2377 -6.0798,-117.2806 13.8259,-171.9135 12.5539,-37.0677 43.5445,-68.9926 83.6865,-73.7346 m -6.1498,35.8654 c -35.5949,14.4264 -45.8148,56.5031 -50.7563,90.6988 -5.2085,47.687 -6.4105,96.8434 4.9415,143.7956 5.6791,23.1089 17.6353,47.6203 40.5427,57.7721 25.9791,13.0906 60.7091,1.8033 74.4014,-23.8435 21.839,-37.7355 22.3733,-83.0181 22.6404,-125.4288 -0.8649,-41.342 -2.5375,-85.8232 -25.3814,-121.7554 -13.5587,-21.9067 -42.7431,-30.7227 -66.3883,-21.2388"
     id="path20-2"
     style="fill:#0078d6;fill-opacity:1;stroke-width:6.67885017"
     inkscape:export-filename="G:\Users\suitedoalex\sites\windows-10-logo-6.png"
     inkscape:export-xdpi="14.950914"
     inkscape:export-ydpi="14.950914" />
</svg>
