<?xml version="1.0" encoding="UTF-8" standalone="no"?>
<svg
   xmlns:dc="http://purl.org/dc/elements/1.1/"
   xmlns:cc="http://creativecommons.org/ns#"
   xmlns:rdf="http://www.w3.org/1999/02/22-rdf-syntax-ns#"
   xmlns:svg="http://www.w3.org/2000/svg"
   xmlns="http://www.w3.org/2000/svg"
   xmlns:sodipodi="http://sodipodi.sourceforge.net/DTD/sodipodi-0.dtd"
   xmlns:inkscape="http://www.inkscape.org/namespaces/inkscape"
   version="1.1"
   id="Шар_1"
   x="0"
   y="0"
   viewBox="0 0 700 700.00001"
   xml:space="preserve"
   sodipodi:docname="windows-11-logo.svg"
   width="700"
   height="700"
   inkscape:export-filename="C:\Users\alex\sites\windows-11-logo-0.png"
   inkscape:export-xdpi="561.73712"
   inkscape:export-ydpi="561.73712"
   inkscape:version="0.92.3 (2405546, 2018-03-11)"><metadata
   id="metadata22"><rdf:RDF><cc:Work
       rdf:about=""><dc:format>image/svg+xml</dc:format><dc:type
         rdf:resource="http://purl.org/dc/dcmitype/StillImage" /><dc:title></dc:title></cc:Work></rdf:RDF></metadata><defs
   id="defs20" /><sodipodi:namedview
   pagecolor="#ffffff"
   bordercolor="#666666"
   borderopacity="1"
   objecttolerance="10"
   gridtolerance="10"
   guidetolerance="10"
   inkscape:pageopacity="0"
   inkscape:pageshadow="2"
   inkscape:window-width="1600"
   inkscape:window-height="838"
   id="namedview18"
   showgrid="false"
   inkscape:zoom="0.41"
   inkscape:cx="159.7561"
   inkscape:cy="92.045288"
   inkscape:window-x="-8"
   inkscape:window-y="-8"
   inkscape:window-maximized="1"
   inkscape:current-layer="Шар_1" />
  <style
   type="text/css"
   id="style2">
  </style>
  <path
   id="rect65"
   d="m 67.55532,298.00459 h 50.23674 v 50.23675 H 67.55532 Z"
   inkscape:connector-curvature="0"
   style="fill:#0077d4;fill-opacity:1;stroke-width:0.61171305"
   inkscape:export-filename="C:\Users\alex\sites\windows-11-logo.png"
   inkscape:export-xdpi="696.09375"
   inkscape:export-ydpi="696.09375" />
  <path
   id="rect165"
   d="m 121.30939,348.24134 v -50.23675 h 50.23674 v 50.23675 z"
   inkscape:connector-curvature="0"
   style="fill:#0077d4;fill-opacity:1;stroke-width:0.61171305"
   inkscape:export-filename="C:\Users\alex\sites\windows-11-logo.png"
   inkscape:export-xdpi="696.09375"
   inkscape:export-ydpi="696.09375" />
  <path
   id="rect413"
   d="m 67.55532,351.75868 h 50.23674 V 401.9954 H 67.55532 Z"
   inkscape:connector-curvature="0"
   style="fill:#0077d4;fill-opacity:1;stroke-width:0.61171305"
   inkscape:export-filename="C:\Users\alex\sites\windows-11-logo.png"
   inkscape:export-xdpi="696.09375"
   inkscape:export-ydpi="696.09375" />
  <path
   id="rect415"
   d="m 121.30939,401.9954 v -50.23672 h 50.23674 v 50.23672 z"
   inkscape:connector-curvature="0"
   style="fill:#0077d4;fill-opacity:1;stroke-width:0.61171305"
   inkscape:export-filename="C:\Users\alex\sites\windows-11-logo.png"
   inkscape:export-xdpi="696.09375"
   inkscape:export-ydpi="696.09375" />
  <path
   d="m 288.4821,318.83029 -17.28147,62.39225 h -11.82878 l -12.00468,-43.63977 q -0.74755,-2.78459 -0.92344,-6.09129 h -0.1759 q -0.21986,3.08916 -1.05534,6.00428 l -12.04866,43.72678 H 221.0712 l -17.63324,-62.39225 h 11.477 l 11.43302,45.6847 q 0.70358,2.87162 0.87946,6.00428 h 0.21987 q 0.17589,-2.21898 1.23126,-6.00428 l 12.92812,-45.6847 h 10.77341 l 11.96072,46.03277 q 0.61563,2.34951 0.92344,5.5692 h 0.17589 q 0.13191,-2.17547 1.01138,-5.74323 l 11.21317,-45.85874 z"
   id="path19153"
   font-weight="600"
   font-size="146.443"
   inkscape:connector-curvature="0"
   style="font-weight:600;font-size:146.44299316px;fill:#0077d4;fill-opacity:1;stroke-width:0.61496115"
   inkscape:export-filename="C:\Users\alex\sites\windows-11-logo.png"
   inkscape:export-xdpi="696.09375"
   inkscape:export-ydpi="696.09375" />
  <path
   d="m 303.66783,381.22254 h -10.20178 v -44.55346 h 10.20178 z"
   id="path19201"
   font-weight="600"
   font-size="146.443"
   inkscape:connector-curvature="0"
   style="font-weight:600;font-size:146.44299316px;fill:#0077d4;fill-opacity:1;stroke-width:0.61496115"
   inkscape:export-filename="C:\Users\alex\sites\windows-11-logo.png"
   inkscape:export-xdpi="696.09375"
   inkscape:export-ydpi="696.09375" />
  <path
   d="m 298.65258,329.24028 q -2.55685,0 -4.396,-1.64221 -1.79427,-1.6422 -1.79427,-4.17206 0,-2.52989 1.79427,-4.21647 1.83915,-1.68658 4.396,-1.68658 2.64657,0 4.48571,1.68658 1.83914,1.68659 1.83914,4.21647 0,2.39671 -1.83914,4.12769 -1.83914,1.68659 -4.48571,1.68658 z"
   id="path19155"
   font-weight="600"
   font-size="146.443"
   inkscape:connector-curvature="0"
   style="font-weight:600;font-size:146.44299316px;fill:#0077d4;fill-opacity:1;stroke-width:0.62731528"
   inkscape:export-filename="C:\Users\alex\sites\windows-11-logo.png"
   inkscape:export-xdpi="696.09375"
   inkscape:export-ydpi="696.09375" />
  <path
   d="m 354.13799,381.22254 h -10.09966 v -25.10483 c 0,-7.43264 -2.94574,-12.29791 -8.83721,-12.29791 -3.07632,0 -5.61575,1.02836 -7.61828,3.34884 -2.0025,2.29149 -3.00376,5.36414 -3.00376,8.6445 v 25.4094 h -10.14321 v -44.55346 h 10.14321 v 6.08948 c 1.88009,-3.25643 7.43042,-7.1337 14.0864,-7.1337 6.52279,0 9.76409,2.10546 12.0471,4.93174 2.55395,3.13267 3.42541,7.26662 3.42541,13.42917 z"
   id="path19157"
   font-weight="600"
   font-size="146.443"
   inkscape:connector-curvature="0"
   style="font-weight:600;font-size:146.44299316px;fill:#0077d4;fill-opacity:1;stroke-width:0.61187679"
   inkscape:export-filename="C:\Users\alex\sites\windows-11-logo.png"
   inkscape:export-xdpi="696.09375"
   inkscape:export-ydpi="696.09375" />
  <path
   id="path20723"
   d="m 395.20882,315.26273 v 25.56042 h -0.76942 c -1.53356,-2.71476 -6.12723,-5.19834 -12.46839,-5.19834 -6.04759,0 -10.89535,2.21919 -14.54127,6.65713 -3.61697,4.43794 -5.42534,10.34097 -5.42534,17.70854 0,6.87446 1.69203,12.17881 4.96178,16.18166 3.46423,4.17327 8.48578,5.5974 13.09443,5.5974 8.02933,0 12.48754,-3.61893 14.84235,-6.44209 h 0.30586 v 5.89488 h 10.06932 v -65.95961 z m -10.76104,28.5866 c 6.25285,-0.34688 11.40418,5.76081 10.8973,11.81521 -0.0473,4.48401 0.50247,9.3244 -2.24373,13.22072 -2.19547,3.95 -6.95449,5.64837 -11.27005,4.94384 -5.46926,-0.54065 -8.78965,-5.96658 -9.29633,-11.02393 -0.53993,-5.45035 -0.0965,-11.68927 3.82677,-15.89252 2.07911,-2.18952 5.13206,-3.09705 8.08604,-3.06332 z"
   font-weight="600"
   font-size="146.443"
   display="inline"
   inkscape:connector-curvature="0"
   style="font-weight:600;font-size:146.44299316px;display:inline;fill:#0077d4;fill-opacity:1;stroke-width:0.61096174"
   inkscape:export-filename="C:\Users\alex\sites\windows-11-logo.png"
   inkscape:export-xdpi="696.09375"
   inkscape:export-ydpi="696.09375" />
  <path
   id="path22175"
   d="m 436.73226,335.38824 c -7.1988,0 -12.92953,2.11537 -17.19122,6.3477 -4.23288,4.23231 -6.34889,10.1146 -6.34889,17.64522 0,6.91765 2.02951,12.47793 6.08963,16.68106 4.08891,4.17395 9.54597,6.26048 16.37043,6.26048 7.02602,0 12.61221,-2.1454 16.75872,-6.4361 4.1753,-4.3199 6.26287,-10.0556 6.26287,-17.20676 0,-7.2971 -1.92999,-13.00278 -5.78855,-17.11834 -3.85856,-4.11556 -9.24215,-6.17326 -16.15299,-6.17326 z m -0.56962,8.55804 c 4.01913,-0.16137 8.1306,1.84822 10.01558,5.48869 2.43828,4.59379 2.48934,10.12865 1.4779,15.12429 -0.87522,4.22221 -4.02857,8.1652 -8.42689,8.94288 -4.62126,1.02421 -10.00731,-0.32471 -12.79097,-4.36779 -3.1722,-4.48898 -3.29795,-10.45159 -2.15379,-15.64445 1.03426,-4.69452 4.86709,-8.882 9.79095,-9.40146 0.6911,-0.0978 1.3894,-0.1428 2.08722,-0.14216 z"
   font-weight="600"
   font-size="146.443"
   display="inline"
   inkscape:connector-curvature="0"
   style="font-weight:600;font-size:146.44299316px;display:inline;fill:#0077d4;fill-opacity:1;stroke-width:0.61139101"
   inkscape:export-filename="C:\Users\alex\sites\windows-11-logo.png"
   inkscape:export-xdpi="696.09375"
   inkscape:export-ydpi="696.09375" />
  <path
   d="m 527.4864,336.61173 -13.27989,44.61081 h -10.68549 l -8.48458,-30.23428 c -0.32248,-1.16174 -0.32155,-1.15066 -0.61563,-2.69745 h -0.1759 c -0.32558,1.04831 -0.32247,1.04197 -0.79151,2.61031 l -8.577,30.32142 h -10.46563 l -13.23593,-44.61081 h 10.55357 l 7.87338,32.15115 c 0.26384,0.95843 0.24857,0.96512 0.52767,2.61028 h 0.3078 c 0.33647,-1.31539 0.32249,-1.30332 0.70359,-2.69742 l 9.40808,-32.06401 h 9.58615 l 8.39695,32.28184 c 0.26383,1.01652 0.268,1.01384 0.57164,2.6105 h 0.30781 c 0.27847,-1.13674 0.27851,-1.12928 0.65961,-2.6105 l 7.69724,-32.28184 z"
   id="path19163"
   font-weight="600"
   font-size="146.443"
   display="inline"
   inkscape:connector-curvature="0"
   style="font-weight:600;font-size:146.44299316px;display:inline;fill:#0077d4;fill-opacity:1;stroke-width:0.61535656"
   inkscape:export-filename="C:\Users\alex\sites\windows-11-logo.png"
   inkscape:export-xdpi="696.09375"
   inkscape:export-ydpi="696.09375" />
  <path
   d="m 530.41375,379.83024 v -9.96619 c 3.48104,2.45259 7.38044,4.07762 11.61711,4.07762 5.2866,0 7.61621,-1.58946 7.61621,-4.55363 0,-1.01522 0.042,-1.06307 -0.32205,-1.96198 -0.4249,-0.75895 -0.66931,-1.25527 -1.50585,-1.90778 -0.80955,-0.55111 -1.78102,-1.12705 -2.91439,-1.61621 -1.10639,-0.43508 -2.34771,-1.09716 -3.72396,-1.64827 -1.70006,-0.72516 -3.23821,-1.49382 -4.61445,-2.30599 -1.34926,-0.81218 -2.48264,-2.03171 -3.40014,-3.04693 -0.89051,-1.04422 -1.56513,-2.21897 -2.02388,-3.52424 -0.45875,-1.30528 -0.68812,-2.8281 -0.68812,-4.56848 0,-2.14645 0.47224,-4.03185 1.41672,-5.6562 0.94448,-1.65334 2.21278,-3.03113 3.80491,-4.13337 1.59212,-1.13125 3.3393,-2.16166 5.36318,-2.71277 2.02389,-0.58012 4.17606,-0.93101 6.33488,-0.93101 3.83189,0 7.259,0.87369 10.28134,2.12095 l 1.9e-4,9.44408 c -2.29938,-2.16674 -7.84512,-3.50085 -9.94404,-3.49346 -1.04132,0.004 -1.24358,-0.0371 -2.22856,0.0753 -0.94448,0.26105 -1.78783,0.46818 -2.46246,0.93229 -0.67463,0.4641 -1.20084,1.02972 -1.57863,1.69685 -0.37779,0.63814 -0.56668,1.34878 -0.56668,2.13196 0,0.9572 0.18889,1.76937 0.56668,2.43651 0.37779,0.66714 0.93098,1.26177 1.65959,1.7839 0.75558,0.49309 1.6461,0.95719 2.67153,1.39229 1.05242,0.40608 1.18277,0.59749 2.53202,1.0906 1.78103,0.78317 3.37315,1.58083 4.77638,2.39301 1.43021,0.81217 2.64454,1.74036 3.64299,2.78458 0.99845,1.01522 1.91622,2.42075 2.45592,3.78404 0.53971,1.33428 0.66086,3.10533 0.66086,4.96173 0,2.26248 -0.48572,4.2349 -1.45719,5.91724 -0.97147,1.68237 -2.26676,3.07466 -3.88586,4.17691 -1.61911,1.10224 -3.49458,1.9144 -5.62641,2.43651 -2.10484,0.55111 -4.33111,0.82667 -6.67882,0.82667 -4.5335,0 -8.45984,-0.81217 -11.77902,-2.43651 z"
   id="path19165"
   font-weight="600"
   font-size="146.443"
   display="inline"
   inkscape:connector-curvature="0"
   style="font-weight:600;font-size:146.44299316px;display:inline;fill:#0077d4;fill-opacity:1;stroke-width:0.59000993"
   inkscape:export-filename="C:\Users\alex\sites\windows-11-logo.png"
   inkscape:export-xdpi="696.09375"
   inkscape:export-ydpi="696.09375" />
  <path
   d="m 600.87113,317.438 v 63.78454 h -10.20179 v -51.42792 q -2.77031,1.95791 -5.98036,3.35021 -3.16605,1.34879 -7.25556,2.39301 v -8.61483 q 2.55044,-0.82668 4.92499,-1.74037 2.37456,-0.91369 4.66116,-2.04493 2.33058,-1.13124 4.66116,-2.52353 2.37455,-1.3923 4.88101,-3.17618 z"
   id="path19167"
   font-weight="600"
   font-size="146.443"
   inkscape:connector-curvature="0"
   style="font-weight:600;font-size:146.44299316px;fill:#0077d4;fill-opacity:1;stroke-width:0.61496115"
   inkscape:export-filename="C:\Users\alex\sites\windows-11-logo.png"
   inkscape:export-xdpi="696.09375"
   inkscape:export-ydpi="696.09375" />
  <path
   d="m 632.44468,317.438 v 63.78454 H 622.2429 v -51.42792 q -2.77031,1.95791 -5.98035,3.35021 -3.16608,1.34879 -7.25558,2.39301 v -8.61483 q 2.55045,-0.82668 4.925,-1.74037 2.37454,-0.91369 4.66115,-2.04493 2.33059,-1.13124 4.66117,-2.52353 2.37454,-1.3923 4.88102,-3.17618 z"
   id="path19169"
   font-weight="600"
   font-size="146.443"
   inkscape:connector-curvature="0"
   style="font-weight:600;font-size:146.44299316px;fill:#0077d4;fill-opacity:1;stroke-width:0.61496115"
   inkscape:export-filename="C:\Users\alex\sites\windows-11-logo.png"
   inkscape:export-xdpi="696.09375"
   inkscape:export-ydpi="696.09375" />
</svg>